<svg width="24" height="24" viewBox="0 0 24 24" fill="none" xmlns="http://www.w3.org/2000/svg">
<path d="M2.40002 5.224L5.30642 10.419V13.5878L2.40342 18.7726L2.40002 5.224Z" fill="#5B57A2"/>
<path d="M13.5593 8.52865L16.2827 6.85945L21.8563 6.85425L13.5593 11.937V8.52865Z" fill="#D90751"/>
<path d="M13.544 5.19339L13.5594 12.0714L10.6462 10.2814V0L13.5442 5.19339H13.544Z" fill="#FAB718"/>
<path d="M21.8564 6.85419L16.2826 6.85939L13.544 5.19339L10.6462 0L21.8562 6.85419H21.8564Z" fill="#ED6F26"/>
<path d="M13.5594 18.8014V15.4644L10.6462 13.7084L10.6478 24L13.5594 18.8014Z" fill="#63B22F"/>
<path d="M16.276 17.1474L5.30622 10.419L2.40002 5.224L21.8446 17.1406L16.2758 17.1474H16.276Z" fill="#1487C9"/>
<path d="M10.6481 24L13.5593 18.8014L16.2759 17.1474L21.8445 17.1406L10.6481 24Z" fill="#017F36"/>
<path d="M2.40344 18.7725L10.67 13.7085L7.89084 12.0033L5.30644 13.5877L2.40344 18.7725Z" fill="#984995"/>
</svg>
