<svg width="24" height="24" viewBox="0 0 24 24" fill="none" xmlns="http://www.w3.org/2000/svg">
<path d="M2.11905 7.80781C2.87545 11.2524 4.60534 14.4072 7.10295 16.897C9.59276 19.3946 12.7476 21.1245 16.1921 21.8809C17.2738 22.0997 18.3982 21.909 19.3472 21.3457C20.2961 20.7824 21.0021 19.8867 21.3279 18.8323L21.58 18.0444C21.7303 17.5748 21.5158 17.0657 21.0748 16.8452L17.5057 15.0607C17.1207 14.8682 16.6557 14.9437 16.3513 15.248L14.4759 17.1235C12.7877 16.3903 11.2476 15.3551 9.93125 14.0686C8.64483 12.7523 7.60959 11.2121 6.87645 9.52391L8.75189 7.64846C9.05625 7.3441 9.13171 6.87913 8.93921 6.49414L7.15471 2.92513C6.9342 2.48411 6.42515 2.26965 5.95553 2.41991L5.16765 2.67201C4.11329 2.99791 3.21758 3.70382 2.65427 4.6528C2.09096 5.60177 1.90022 6.72616 2.11905 7.80781Z" fill="white"/>
</svg>
