<svg width="32" height="32" viewBox="0 0 32 32" fill="none" xmlns="http://www.w3.org/2000/svg">
<path fill-rule="evenodd" clip-rule="evenodd" d="M26 1.25H6C3.37665 1.25 1.25 3.37665 1.25 6V26C1.25 28.6234 3.37665 30.75 6 30.75H26C28.6234 30.75 30.75 28.6234 30.75 26V6C30.75 3.37665 28.6234 1.25 26 1.25ZM6 0C2.68629 0 0 2.68629 0 6V26C0 29.3137 2.68629 32 6 32H26C29.3137 32 32 29.3137 32 26V6C32 2.68629 29.3137 0 26 0H6Z" fill="white"/>
<path d="M8 7.9989H11.2V11.1989H14.4V14.3989H17.6V17.5989L14.4 17.5989V20.7989L11.2 20.7989V23.9989H8V17.5989L11.2 17.5989V14.3989H8V7.9989Z" fill="white"/>
<path d="M17.6 20.7989V17.5989L20.8 17.5989V20.7989L17.6 20.7989Z" fill="white"/>
<path d="M20.8 20.7989H24V23.9989H20.8V20.7989Z" fill="white"/>
<path d="M17.6 20.7989L14.4 20.7989V23.9989H17.6L17.6 20.7989Z" fill="white"/>
<path d="M20.8 17.5989L20.8 14.3989H17.6L17.6 11.1989H14.4V7.9989H20.8V11.1989H24V17.5989H20.8Z" fill="white"/>
</svg>
