<svg width="20" height="21" viewBox="0 0 20 21" fill="none" xmlns="http://www.w3.org/2000/svg">
<path d="M9.99998 8.83333C10.6181 8.83333 11.2222 8.65006 11.7361 8.30667C12.2501 7.9633 12.6506 7.47524 12.8871 6.90422C13.1236 6.3332 13.1855 5.70487 13.0649 5.09867C12.9444 4.49248 12.6467 3.93567 12.2097 3.49862C11.7726 3.06158 11.2158 2.76396 10.6096 2.64338C10.0035 2.5228 9.37515 2.58468 8.80406 2.82121C8.23307 3.05773 7.74501 3.45827 7.40164 3.97217C7.05825 4.48608 6.87498 5.09027 6.87498 5.70833C6.87593 6.53684 7.20547 7.33115 7.79132 7.917C8.37715 8.50284 9.17148 8.83238 9.99998 8.83333ZM16.4225 13.6543C14.7179 11.9534 12.4081 10.9981 9.99998 10.9981C7.59187 10.9981 5.2821 11.9534 3.57748 13.6543C3.42115 13.8106 3.33331 14.0226 3.33331 14.2437V17C3.33331 17.5523 3.78103 18 4.33331 18H15.6666C16.2189 18 16.6666 17.5523 16.6666 17V14.2437C16.6666 14.0226 16.5788 13.8106 16.4225 13.6543Z" fill="white"/>
</svg>
